<svg xmlns="http://www.w3.org/2000/svg" viewBox="0 0 512 512" fill="none">
  <defs>
    <linearGradient id="g1" x1="0%" y1="0%" x2="100%" y2="100%">
      <stop offset="0%" style="stop-color:#f43f5e;stop-opacity:1" />
      <stop offset="100%" style="stop-color:#be123c;stop-opacity:1" />
    </linearGradient>
    <filter id="f1" x="-20%" y="-20%" width="140%" height="140%">
      <feDropShadow dx="0" dy="4" stdDeviation="8" flood-color="#000" flood-opacity="0.25"/>
    </filter>
  </defs>
  
  <rect width="512" height="512" rx="128" fill="url(#g1)" />
  
  <g filter="url(#f1)" transform="translate(106, 106) scale(0.6)">
    <path fill="#ffffff" d="M250,50 C140,50 50,140 50,250 C50,360 140,450 250,450 C360,450 450,360 450,250 C450,140 360,50 250,50 Z M250,100 C332,100 400,167 400,250 C400,332 332,400 250,400 C167,400 100,332 100,250 C100,167 167,100 250,100 Z" opacity="0.2"/>
    
    <!-- Fingerprint-like Pulse -->
    <path stroke="#ffffff" stroke-width="24" stroke-linecap="round" fill="none" 
          d="M150,250 
             Q150,180 250,180 
             Q350,180 350,250 
             L350,280 
             L380,220 
             L400,260" />
    <path stroke="#ffffff" stroke-width="24" stroke-linecap="round" fill="none"
          d="M100,250 
             L130,250 
             L160,200 
             L200,320 
             L240,150 
             L280,300 
             L320,250" />
    
    <circle cx="250" cy="250" r="30" fill="#ffffff" />
  </g>
</svg>
